# xmcd CD database generated by RipIT
#
# Track frame offsets:
# 150
# 14671
# 34323
# 60447
# 80475
# 110555
# 141583
# 162916
#
# Disc length: 2541 seconds
#
# Revision: 0
# Processed by: cddbd v1.5.2PL0 Copyright (c) Steve Scherf et al.
# Submitted via: RipIT 4.0.0-beta20140424 www.suwald.com/ripit/ripit.html on 2015-05-03 at 21:20
#
DISCID=6d09eb08
DTITLE=Morgarten - Risen to Fight
DYEAR=2015
DGENRE=Black Metal
TTITLE0=Beyond the Mist
TTITLE1=Called to the War
TTITLE2=Path in the Darkness
TTITLE3=Wind from the Forest
TTITLE4=Ancestral War
TTITLE5=The lost Horde
TTITLE6=The final Attack
TTITLE7=Revelations of the Graveyard
EXTD=
EXTT0=
EXTT1=
EXTT2=
EXTT3=
EXTT4=
EXTT5=
EXTT6=
EXTT7=
PLAYORDER=
